<svg width="20" height="20" viewBox="0 0 20 20" fill="none" xmlns="http://www.w3.org/2000/svg">
<rect width="20" height="20" rx="10" fill="#918BC5"/>
<path d="M6.57143 14C6.42522 14 6.27902 13.9442 6.16741 13.8326C5.9442 13.6094 5.9442 13.2478 6.16741 13.0246L13.0246 6.16741C13.2478 5.9442 13.6094 5.9442 13.8326 6.16741C14.0558 6.39063 14.0558 6.75223 13.8326 6.97545L6.97545 13.8326C6.86384 13.9442 6.71763 14 6.57143 14Z" fill="white"/>
<path d="M13.4286 14C13.2824 14 13.1362 13.9442 13.0246 13.8326L6.16741 6.97545C5.9442 6.75223 5.9442 6.39063 6.16741 6.16741C6.39063 5.9442 6.75223 5.9442 6.97545 6.16741L13.8326 13.0246C14.0558 13.2478 14.0558 13.6094 13.8326 13.8326C13.721 13.9442 13.5748 14 13.4286 14Z" fill="white"/>
</svg>
